<?xml version="1.0" encoding="UTF-8"?>
<!-- Generator: Adobe Illustrator 14.0.0, SVG Export Plug-In . SVG Version: 6.00 Build 43363)  -->
<!DOCTYPE svg PUBLIC "-//W3C//DTD SVG 1.1//EN" "http://www.w3.org/Graphics/SVG/1.1/DTD/svg11.dtd">
<svg version="1.1" id="Layer_1" xmlns="http://www.w3.org/2000/svg" xmlns:xlink="http://www.w3.org/1999/xlink" x="0px" y="0px" width="792px" height="612px" viewBox="0 0 792 612" enable-background="new 0 0 792 612" xml:space="preserve" class="mozwebext">
<g>
	<path d="M148.858,394.863c0,6.857-0.98,12.363-2.941,16.516s-4.268,7.518-6.924,10.092c-3.773,3.771-9.055,5.656-15.842,5.656   h-0.799H94.733v-66.875h21.883c3.291,0,6.107,0.217,8.451,0.65s4.451,1.043,6.326,1.828s3.471,1.668,4.787,2.646   s2.494,2.029,3.533,3.15c1.795,1.865,3.369,4.068,4.723,6.607c1.354,2.541,2.43,5.484,3.227,8.828S148.858,390.941,148.858,394.863   z M132.733,393.994c0-5.438-0.818-9.676-2.453-12.717c-1.635-3.039-3.6-5.074-5.893-6.105c-2.293-1.029-4.631-1.545-7.012-1.545   h-6.768v39.625h6.768c4.156,0,7.754-1.254,10.795-3.764S132.733,401.814,132.733,393.994z"/>
	<path d="M190.282,380.664l-5.049,17.475c-2.076-2.508-4.178-3.762-6.303-3.762c-1.924,0-3.588,0.828-4.992,2.48   c-1.406,1.654-2.754,4.713-4.043,9.174v21.096h-13.625v-49.125h13.625v11.918c0.859-2.939,2.379-5.807,4.555-8.602   c2.176-2.793,4.732-4.191,7.67-4.191c1.543,0,2.891,0.291,4.043,0.873C187.313,378.582,188.687,379.469,190.282,380.664z"/>
	<path d="M233.752,424.668c-1.996,1-3.84,1.805-5.531,2.416s-3.725,0.918-6.098,0.918c-2.248,0-3.814-0.508-4.697-1.521   c-0.885-1.016-1.516-2.248-1.895-3.697c-1.473,1.516-3.107,2.764-4.908,3.746c-1.801,0.98-4.158,1.473-7.074,1.473   c-2.816,0-5.092-0.619-6.828-1.855c-1.738-1.236-2.955-2.795-3.652-4.674s-1.045-3.816-1.045-5.809c0-3.02,0.602-5.516,1.807-7.492   c1.203-1.977,2.82-3.59,4.85-4.844s4.719-2.555,8.066-3.904c1.902-0.77,3.342-1.355,4.318-1.758s1.705-0.715,2.188-0.941   c0.48-0.225,0.988-0.514,1.521-0.867c0-2.375-0.381-4.236-1.143-5.584s-2.41-2.021-4.945-2.021c-2.994,0-5.771,0.836-8.334,2.508   s-4.908,3.826-7.037,6.461v-13.342c1.695-1.555,3.531-2.824,5.506-3.813c1.973-0.988,4.035-1.725,6.188-2.211   c2.152-0.484,4.328-0.729,6.531-0.729c5.594,0,9.803,1.377,12.625,4.127s4.234,6.539,4.234,11.363v18.965   c0,1.803,0.133,3.146,0.398,4.031s0.752,1.326,1.463,1.326c0.859,0,2.023-0.465,3.492-1.398V424.668z M214.774,415.258v-11.631   c-3.254,1.672-5.629,3.176-7.127,4.51c-1.5,1.336-2.248,3.145-2.248,5.426c0,1.641,0.373,2.895,1.123,3.762   c0.75,0.869,1.619,1.303,2.611,1.303c0.939,0,1.873-0.328,2.801-0.986C212.862,416.984,213.809,416.189,214.774,415.258z"/>
	<path d="M277.934,388.529h-6.744c2.369,2.639,3.555,5.873,3.555,9.701c0,2.027-0.336,3.973-1.004,5.838   c-0.67,1.867-1.654,3.523-2.955,4.971c-1.301,1.449-2.902,2.631-4.809,3.549s-4.084,1.473-6.533,1.664   c-3.184,0.16-4.775,1.234-4.775,3.223c0,0.77,0.203,1.332,0.609,1.684c0.406,0.354,1.049,0.619,1.928,0.795   c0.877,0.176,2.359,0.377,4.445,0.6c2.348,0.258,4.529,0.709,6.549,1.352c2.02,0.645,3.898,1.996,5.641,4.055   c1.742,2.057,2.613,5.002,2.613,8.83c0,3.055-0.652,5.758-1.955,8.107c-1.303,2.348-3.408,4.182-6.318,5.502   c-2.91,1.318-6.756,1.979-11.537,1.979c-6.883,0-11.936-1.178-15.162-3.527c-3.227-2.354-4.838-5.496-4.838-9.428   c0-1.063,0.207-2.287,0.625-3.672c0.418-1.389,1.303-2.725,2.656-4.014s3.32-2.16,5.902-2.609   c-0.912-0.416-1.697-1.225-2.354-2.426c-0.658-1.201-0.986-2.459-0.986-3.771c0-1.697,0.461-3.379,1.385-5.045   c0.922-1.664,2.422-2.738,4.496-3.219c-2.883-0.967-5.375-2.787-7.475-5.463s-3.148-6.141-3.148-10.395   c0-3.223,0.486-6.041,1.461-8.459c0.973-2.418,2.32-4.383,4.041-5.898s3.719-2.635,5.996-3.361c2.277-0.725,4.77-1.088,7.477-1.088   h21.215V388.529z M265.592,436.279c0-2.148-0.906-3.535-2.719-4.16s-3.684-0.938-5.609-0.938c-3.168,0-5.457,0.424-6.863,1.275   c-1.406,0.848-2.109,2.203-2.109,4.063c0,3.654,2.914,5.482,8.746,5.482c2.609,0,4.688-0.475,6.234-1.418   C264.819,439.637,265.592,438.201,265.592,436.279z M262.87,396.85c0-2.482-0.668-4.473-2-5.973s-2.824-2.25-4.473-2.25   c-2.107,0-3.764,0.904-4.969,2.709c-1.207,1.805-1.809,3.707-1.809,5.707c0,1.387,0.26,2.676,0.779,3.869s1.256,2.152,2.209,2.877   c0.951,0.727,2.088,1.088,3.408,1.088c1.98,0,3.617-0.789,4.912-2.369C262.221,400.928,262.87,399.041,262.87,396.85z"/>
	<path d="M325.553,402.516c0,4.893-0.836,9.254-2.504,13.082s-4.164,6.854-7.488,9.074s-7.375,3.33-12.152,3.33   s-8.828-1.109-12.152-3.33c-3.324-2.219-5.814-5.244-7.471-9.074c-1.656-3.828-2.482-8.189-2.482-13.082   c0-3.699,0.461-7.063,1.383-10.088c0.922-3.023,2.326-5.703,4.209-8.035s4.203-4.127,6.959-5.383   c2.754-1.254,5.939-1.883,9.555-1.883c3.641,0,6.857,0.637,9.65,1.906c2.793,1.271,5.105,3.049,6.938,5.334   s3.217,4.957,4.152,8.014S325.553,398.816,325.553,402.516z M311.178,402.516c0-3.873-0.664-6.906-1.99-9.1   c-1.326-2.191-3.252-3.289-5.779-3.289c-2.502,0-4.416,1.098-5.742,3.289c-1.326,2.193-1.988,5.227-1.988,9.1   c0,3.844,0.668,6.885,2.008,9.125c1.34,2.242,3.246,3.361,5.723,3.361c2.527,0,4.453-1.111,5.779-3.338   C310.514,409.439,311.178,406.391,311.178,402.516z"/>
	<path d="M373.964,427.127h-13.625v-25.512V400.6c0-2.705-0.35-5.064-1.049-7.078c-0.699-2.012-2.232-3.02-4.598-3.02   c-1.119,0-2.105,0.266-2.957,0.797s-1.615,1.217-2.289,2.055s-1.24,1.643-1.697,2.416s-0.928,1.594-1.41,2.463v28.895h-13.625   v-49.125h13.625v7.016c2.152-2.918,4.313-4.963,6.479-6.135c2.166-1.17,4.578-1.756,7.238-1.756   c9.271,0,13.908,7.047,13.908,21.139V427.127z"/>
	<path d="M455.884,400.127h-21.83v27h-15.875v-66.875h37.705v13.375h-21.83v13h21.83V400.127z"/>
	<path d="M478.685,427.127H465.06v-66.875h13.625V427.127z"/>
	<path d="M529.505,378.002l-26.271,71.5h-13.818l10.629-28.773l-15.299-42.727h14.691l7.859,24.375l8.922-24.375H529.505z"/>
	<path fill="#ED1C24" d="M583.837,408.158c0,5.762-1.553,10.363-4.656,13.805c-3.105,3.443-7.445,5.164-13.02,5.164h-30.449v-66.875   h25.465c3.293,0,6.162,0.402,8.607,1.207s4.414,1.904,5.91,3.303c1.494,1.398,2.609,3.047,3.344,4.945s1.104,3.971,1.104,6.221   c0,2.445-0.381,4.703-1.143,6.777s-1.709,3.779-2.838,5.113c-1.131,1.336-2.268,2.275-3.41,2.822   c3.605,1.803,6.355,4.08,8.248,6.83C582.89,400.221,583.837,403.783,583.837,408.158z M565.255,379.502   c0-3.211-0.836-5.348-2.506-6.408c-1.672-1.061-4.277-1.592-7.82-1.592h-3.342v16h3.418c3.617,0,6.23-0.529,7.838-1.59   S565.255,382.715,565.255,379.502z M567.837,407.338c0-5.723-3.266-8.586-9.795-8.586h-6.455v17.125h6.455   C564.571,415.877,567.837,413.031,567.837,407.338z"/>
	<path fill="#ED1C24" d="M630.716,407.631c0,4.195-0.842,7.824-2.525,10.889s-4.031,5.41-7.043,7.039s-6.467,2.443-10.363,2.443   c-1.09,0-2.424-0.09-4.006-0.266c-1.582-0.18-3.684-0.67-6.303-1.479c-2.621-0.809-5.348-2.004-8.182-3.59v-16.447   c2.656,2.09,5.27,3.826,7.838,5.209s5.32,2.072,8.256,2.072c2.707,0,4.461-0.568,5.258-1.707s1.195-2.205,1.195-3.201   c0-1.797-0.688-3.313-2.061-4.547c-1.375-1.234-3.371-2.51-5.992-3.826c-2.877-1.541-5.4-3.219-7.568-5.033   c-2.17-1.813-3.941-4.084-5.316-6.814s-2.063-5.957-2.063-9.682c0-3.596,0.695-6.848,2.088-9.754   c1.391-2.906,3.518-5.225,6.377-6.959s6.354-2.602,10.479-2.602c2.936,0,5.65,0.363,8.143,1.086   c2.492,0.725,4.549,1.537,6.17,2.438c1.619,0.9,2.732,1.607,3.34,2.121v15.676c-2.156-1.961-4.561-3.713-7.211-5.256   s-5.484-2.314-8.504-2.314c-1.979,0-3.412,0.482-4.299,1.443c-0.889,0.963-1.332,2.15-1.332,3.561c0,1.316,0.445,2.455,1.336,3.418   s2.48,2.133,4.771,3.512c4.053,2.406,7.295,4.572,9.727,6.498s4.338,4.146,5.719,6.664   C630.024,400.742,630.716,403.877,630.716,407.631z"/>
	<path fill="#ED1C24" d="M695.674,394.863c0,6.857-0.98,12.363-2.941,16.516s-4.268,7.518-6.924,10.092   c-3.773,3.771-9.055,5.656-15.842,5.656h-0.799h-27.619v-66.875h21.883c3.291,0,6.107,0.217,8.451,0.65s4.451,1.043,6.326,1.828   s3.471,1.668,4.787,2.646s2.494,2.029,3.533,3.15c1.795,1.865,3.369,4.068,4.723,6.607c1.354,2.541,2.43,5.484,3.227,8.828   S695.674,390.941,695.674,394.863z M679.549,393.994c0-5.438-0.818-9.676-2.453-12.717c-1.635-3.039-3.6-5.074-5.893-6.105   c-2.293-1.029-4.631-1.545-7.012-1.545h-6.768v39.625h6.768c4.156,0,7.754-1.254,10.795-3.764S679.549,401.814,679.549,393.994z"/>
</g>
<radialGradient id="SVGID_1_" cx="396.1699" cy="216.9229" r="102.5" gradientUnits="userSpaceOnUse">
	<stop offset="0" style="stop-color:#FFFFFF"/>
	<stop offset="0.0418" style="stop-color:#F7F9D8"/>
	<stop offset="0.0906" style="stop-color:#EFF2B2"/>
	<stop offset="0.1432" style="stop-color:#E8ED91"/>
	<stop offset="0.1994" style="stop-color:#E2E976"/>
	<stop offset="0.2607" style="stop-color:#DDE562"/>
	<stop offset="0.3295" style="stop-color:#DAE353"/>
	<stop offset="0.412" style="stop-color:#D9E14B"/>
	<stop offset="0.5449" style="stop-color:#D8E148"/>
	<stop offset="0.6791" style="stop-color:#D6E048"/>
	<stop offset="0.7467" style="stop-color:#CFDD47"/>
	<stop offset="0.7994" style="stop-color:#C2D946"/>
	<stop offset="0.8444" style="stop-color:#B1D245"/>
	<stop offset="0.8845" style="stop-color:#99CA44"/>
	<stop offset="0.9206" style="stop-color:#7BC143"/>
	<stop offset="0.927" style="stop-color:#75C044"/>
	<stop offset="1" style="stop-color:#073800"/>
</radialGradient>
<circle fill="url(#SVGID_1_)" stroke="#000000" stroke-width="8.9432" cx="396.17" cy="216.923" r="102.5"/>
<g>
	<g>
		<g id="XMLID_2_">
			<g>
				<path fill="#ED1C24" d="M387.045,247.64c0,0,12.2,0,18.25,0c0,68.9-6.1,207.49-9.13,207.49      C393.145,455.13,387.045,316.54,387.045,247.64z"/>
			</g>
			<g>
				<path fill="none" stroke="#000000" stroke-width="5.9621" d="M387.045,247.64c0,68.9,6.1,207.49,9.12,207.49"/>
				<path fill="none" stroke="#000000" stroke-width="5.9621" d="M405.295,247.64c0,68.9-6.1,207.49-9.13,207.49"/>
				<path fill="none" stroke="#000000" stroke-width="5.9621" d="M387.045,247.64c0,0,12.2,0,18.25,0"/>
			</g>
		</g>
	</g>
	<path fill="none" stroke="#000000" stroke-width="5.9621" d="M387.2,271.201c8.982,0,8.982,0,17.953,0"/>
	<path fill="none" stroke="#000000" stroke-width="5.9621" d="M387.615,291.768c8.551,0,8.551,0,17.09,0"/>
	<path fill="none" stroke="#000000" stroke-width="5.9621" d="M388.135,312.334c8.041,0,8.041,0,16.071,0"/>
	<path fill="none" stroke="#000000" stroke-width="5.9621" d="M388.766,332.883c7.41,0,7.41,0,14.808,0"/>
	<path fill="none" stroke="#000000" stroke-width="5.9621" d="M389.535,353.43c6.658,0,6.658,0,13.307,0"/>
	<g>
		<path fill="none" stroke="#000000" stroke-width="5.9621" d="M390.331,373.951c5.843,0,5.843,0,11.679,0"/>
		<path fill="none" stroke="#000000" stroke-width="5.9621" d="M391.274,394.473c4.898,0,4.898,0,9.791,0"/>
	</g>
</g>
<g id="XMLID_2_">
	<g>
		<ellipse fill="#ED1C24" cx="396.166" cy="216.923" rx="17.08" ry="40.27"/>
	</g>
	<g>
		<ellipse fill="none" stroke="#000000" stroke-width="5.9621" cx="396.17" cy="216.923" rx="17.075" ry="40.27"/>
	</g>
</g>
<g id="XMLID_1_">
	<g>
		<path fill="#FDE92B" d="M413.229,173.491c0,4.07-2.04,7.75-5.319,10.35h-0.01l-6.971-24.05    C408.04,161.511,413.229,166.991,413.229,173.491z"/>
		<path fill="#FDE92B" d="M400.93,159.791l6.971,24.05c-2.631,0-7.061-12.35-9.66-24.51    C399.16,159.421,400.06,159.571,400.93,159.791z"/>
		<path fill="#9A090D" d="M407.9,183.841c-3.061,2.43-7.19,3.92-11.741,3.92c-4.55,0-8.68-1.49-11.74-3.92    c2.63,0,7.06-12.35,9.66-24.51c0.68-0.07,1.37-0.11,2.08-0.11c0.71,0,1.4,0.04,2.081,0.11    C400.84,171.491,405.27,183.841,407.9,183.841z"/>
		<path fill="#9A090D" d="M396.16,143.331l4.77,16.46c-0.87-0.22-1.77-0.37-2.689-0.46    C396.99,153.491,396.16,147.701,396.16,143.331z"/>
		<path d="M398.24,159.331c-0.681-0.07-1.37-0.11-2.081-0.11c-0.71,0-1.4,0.04-2.08,0.11c1.25-5.84,2.08-11.63,2.08-16    C396.16,147.701,396.99,153.491,398.24,159.331z"/>
		<path d="M391.39,159.791l4.77-16.46c0,4.37-0.83,10.16-2.08,16C393.16,159.421,392.26,159.581,391.39,159.791z"/>
		<path fill="#FDE92B" d="M394.08,159.331c-2.6,12.16-7.03,24.51-9.66,24.51l6.97-24.05    C392.26,159.581,393.16,159.421,394.08,159.331z"/>
		<path fill="#FDE92B" d="M391.39,159.791l-6.97,24.05c-3.28-2.6-5.32-6.28-5.32-10.35C379.1,167.001,384.29,161.511,391.39,159.791    z"/>
	</g>
	<g>
		<path fill="none" stroke="#000000" stroke-width="5.5926" d="M394.08,159.331c0.68-0.07,1.37-0.11,2.08-0.11    c0.71,0,1.4,0.04,2.081,0.11c0.92,0.09,1.819,0.24,2.689,0.46c7.11,1.72,12.3,7.2,12.3,13.7c0,4.07-2.04,7.75-5.319,10.35h-0.01    c-3.061,2.43-7.19,3.92-11.741,3.92c-4.55,0-8.68-1.49-11.74-3.92c-3.28-2.6-5.32-6.28-5.32-10.35c0-6.49,5.19-11.98,12.29-13.7    C392.26,159.581,393.16,159.421,394.08,159.331z"/>
		<path fill="none" stroke="#000000" stroke-width="5.5926" d="M384.42,183.841c2.63,0,7.06-12.35,9.66-24.51    c1.25-5.84,2.08-11.63,2.08-16"/>
		<path fill="none" stroke="#000000" stroke-width="5.5926" d="M396.16,143.331c0,4.37,0.83,10.16,2.081,16    c2.6,12.16,7.029,24.51,9.66,24.51"/>
	</g>
</g>
<path fill="none" stroke="#000000" stroke-width="5.9621" d="M218.159,396.518c4.896,0,4.896,0,9.786,0"/>
<path fill="#FFFFFF" stroke="#000000" stroke-width="5.9621" d="M396.16,210.652c0,0-101.311,12.43-135.318-51.591  C230.293,101.554,396.176,203.4,396.176,203.4L396.16,210.652z"/>
<g>
	<path fill="#FFFFFF" stroke="#000000" stroke-width="5.9621" d="M396.176,229.752c0,0-80.307,59.485-138.895,18.468   c-52.632-36.84,138.895-25.42,138.895-25.42V229.752z"/>
</g>
<path fill="#FFFFFF" stroke="#000000" stroke-width="5.9621" d="M396.176,210.6c0,0,101.311,12.43,135.317-51.591  c30.549-57.507-135.333,44.339-135.333,44.339L396.176,210.6z"/>
<path fill="#FFFFFF" stroke="#000000" stroke-width="5.9621" d="M396.16,229.7c0,0,80.307,59.485,138.895,18.468  c52.631-36.84-138.895-25.42-138.895-25.42V229.7z"/>
</svg>