<?xml version="1.0" encoding="UTF-8" standalone="no"?>
<!-- Created with Inkscape (http://www.inkscape.org/) -->

<svg
   xmlns:dc="http://purl.org/dc/elements/1.1/"
   xmlns:cc="http://creativecommons.org/ns#"
   xmlns:rdf="http://www.w3.org/1999/02/22-rdf-syntax-ns#"
   xmlns:svg="http://www.w3.org/2000/svg"
   xmlns="http://www.w3.org/2000/svg"
   xmlns:sodipodi="http://sodipodi.sourceforge.net/DTD/sodipodi-0.dtd"
   xmlns:inkscape="http://www.inkscape.org/namespaces/inkscape"
   width="200mm"
   height="200mm"
   viewBox="0 0 200 200"
   version="1.1"
   id="svg937"
   inkscape:version="0.92.4 (unknown)"
   sodipodi:docname="glaucus-logo.svg"
   inkscape:export-filename="/home/andres/Pictures/References/Creatures/FOSS-Mascots/Glaucus-Artwork/glaucus-logo-svg.png"
   inkscape:export-xdpi="300"
   inkscape:export-ydpi="300">
  <defs
     id="defs931" />
  <sodipodi:namedview
     id="base"
     pagecolor="#ffffff"
     bordercolor="#666666"
     borderopacity="1.0"
     inkscape:pageopacity="0.0"
     inkscape:pageshadow="2"
     inkscape:zoom="0.7"
     inkscape:cx="288.78205"
     inkscape:cy="408.88698"
     inkscape:document-units="mm"
     inkscape:current-layer="svg937"
     showgrid="false"
     inkscape:showpageshadow="false"
     inkscape:window-width="1366"
     inkscape:window-height="740"
     inkscape:window-x="0"
     inkscape:window-y="0"
     inkscape:window-maximized="1"
     inkscape:snap-others="false"
     inkscape:snap-nodes="false"
     inkscape:snap-page="true"
     inkscape:object-nodes="false" />
  <metadata
     id="metadata934">
    <rdf:RDF>
      <cc:Work
         rdf:about="">
        <dc:format>image/svg+xml</dc:format>
        <dc:type
           rdf:resource="http://purl.org/dc/dcmitype/StillImage" />
        <dc:title />
      </cc:Work>
    </rdf:RDF>
  </metadata>
  <path
     style="opacity:1;fill:#000000;fill-opacity:1;stroke-width:0.61663538"
     d="M 123.42882,25.768045 C 102.0384,30.994429 87.726892,53.956862 83.333686,71.681433 82.913784,65.323728 79.305649,52.085453 88.439419,33.804005 91.688864,27.300168 91.02955,25.101309 86.079794,28.365345 70.643035,38.544864 62.908577,56.292075 60.643293,74.952605 58.621869,71.133615 56.516349,61.20483 57.508615,55.833437 58.784952,48.924294 57.933471,43.026756 52.249479,53.395895 34.711431,85.390042 50.417787,130.5125 69.428102,118.08375 c 2.608248,-1.70525 4.954895,-5.10334 4.776194,-8.14822 3.345875,1.48926 9.668662,-2.96504 9.905655,-7.07262 2.069852,2.52805 9.977105,2.16669 11.678861,-0.57248 -0.603648,3.22212 6.733778,9.97972 13.400828,7.36455 -0.37798,1.5119 0.1737,3.79171 3.79718,6.92752 8.6006,7.44308 32.00353,-5.79047 40.49388,-38.629975 1.86583,-7.216787 -2.03849,-4.856222 -5.3382,-0.87063 -8.07472,9.753124 -17.4294,10.439854 -22.30438,13.042154 4.47285,-7.30545 10.88299,-31.119274 41.34739,-44.916014 12.13847,-5.49728 4.24233,-7.07881 -2.95486,-7.0237 -28.37012,0.21724 -50.75119,24.18692 -56.10715,31.65998 3.71444,-11.304372 6.34932,-26.335771 20.3548,-38.64555 7.2031,-6.330987 0.3514,-6.750334 -5.04948,-5.43072 z m 3.45316,2.65366 c -20.67318,20.799958 -18.52794,40.153974 -25.97049,58.01351 15.29187,-33.32408 56.22629,-49.11949 66.34732,-44.41294 -39.81479,18.592849 -37.79693,41.625508 -47.4807,54.18321 11.74697,-4.92624 19.32394,-5.13676 29.13147,-14.63067 -1.58279,13.486582 -23.81843,41.461755 -34.11977,31.738585 -2.79573,-2.63882 -2.79891,-5.42018 -1.38784,-9.30374 -7.72556,6.41385 -17.593916,-0.79322 -15.394666,-8.108995 -3.229548,6.420455 -13.463082,7.100805 -15.666651,0.02598 1.824702,7.829955 -9.300696,13.873415 -13.73895,8.531325 2.501639,3.95776 2.81678,8.16501 -0.637169,10.39953 -15.040572,9.73046 -28.788895,-28.490491 -13.265286,-58.967275 -0.95547,8.87117 1.347076,15.17269 4.446204,22.90747 3.852369,9.61471 5.733966,17.96362 5.733966,17.96362 -4.006269,-22.44565 1.789166,-47.11509 19.750294,-63.46599 C 73.697943,59.091894 80.656807,67.2593 81.958899,86.537135 84.556639,64.539264 102.62403,30.944408 126.88198,28.421705 Z M 61.736531,126.8381 c -4.558169,10.13127 -5.003789,15.26381 -4.30873,22.83429 0.358344,3.90303 2.139658,7.64111 5.984248,7.44712 3.053922,-0.1541 4.490161,-4.87799 3.239365,-8.10649 -2.40279,-6.20199 -5.825652,-14.0891 -3.658682,-20.69595 1.160431,-3.53803 0.407545,-5.17691 -1.256201,-1.47897 z m 101.990639,5.77426 c -1.77571,0.0404 -4.666,1.04346 -6.23206,2.27534 -2.244,1.76512 -2.60282,5.13122 0.17739,8.53239 3.33651,4.08169 2.65415,7.3004 -3.05116,4.80438 -3.82987,-1.67553 -6.00493,-0.55794 -6.64413,3.75643 -0.39496,2.66582 2.02752,4.84793 5.84766,5.60498 5.86228,1.16175 10.13289,-0.0923 12.01298,-4.69543 1.40555,-3.44134 -0.25521,-6.27018 -2.56497,-8.94747 -4.78811,-5.55003 -4.86806,-7.70082 0.77087,-9.43508 2.52735,-0.77729 1.64843,-1.9402 -0.31658,-1.89554 z m -102.796981,0.0705 c -0.520098,7.24516 3.528723,12.957 4.184951,18.79372 0.123282,1.09651 0.156379,3.0502 -1.745936,3.75482 -1.800782,0.66701 -3.282985,-1.45128 -3.825461,-4.67866 -1.087597,-6.47048 -0.07259,-11.48987 1.386446,-17.86988 z m -17.210556,0.47272 c -8.509966,0.20281 -11.390721,4.89711 -11.321086,12.32906 0.0579,6.1798 8.192857,11.4442 14.337517,7.45829 0.252915,7.3996 -2.576166,15.16304 -9.267872,18.66766 -2.701361,1.41477 -1.429018,3.42617 0.694412,3.07511 11.384524,-1.88214 17.447215,-12.43948 16.812403,-25.7687 -0.39463,-8.28615 -2.745408,-15.96423 -11.255374,-15.76142 z m 34.466671,2.40238 c -5.201486,-0.0372 -8.438627,2.61978 -8.78442,8.83035 -0.24655,4.42813 4.193098,9.16784 9.474421,8.77273 4.140611,-0.30976 5.863599,-2.80068 7.981709,0.77443 3.648941,-9.3963 -0.547778,-18.31947 -8.67171,-18.37751 z m -25.160607,13.86205 c 0.530974,7.72624 -3.655949,19.78541 -11.983514,22.52774 6.252792,-5.77611 10.574013,-17.11199 6.188446,-22.46915 -1.734193,2.97534 -10.819703,5.16 -12.075017,-4.22331 -0.761329,-5.69083 2.305441,-9.5259 8.566269,-9.47397 6.260828,0.0519 8.934387,8.26306 9.303816,13.63869 z M 158.5257,136.49313 c -1.91252,3.47425 2.41262,7.15838 3.14763,7.97911 2.10497,2.35041 3.60495,5.30211 2.06099,8.2168 -2.06831,3.90456 -5.59933,3.77541 -9.67599,2.76823 -2.41942,-0.59773 -4.7189,-1.83001 -4.34191,-3.73757 0.36239,-1.83369 1.51645,-2.98396 4.58155,-1.54319 5.30587,2.49406 9.54177,-0.40826 6.76916,-4.69867 -3.81674,-5.90614 -3.70616,-6.49503 -2.54143,-8.98471 z m -66.883535,7.61598 c -0.222047,6.72581 4.016425,9.60418 8.12712,9.56739 5.457875,-0.0488 7.869545,-4.12899 8.223635,-9.91877 0.22558,-3.68845 -0.31551,-6.45013 -1.56328,-6.45013 -0.79826,0 -1.25838,2.18268 -1.50888,4.05033 -0.38125,2.84236 -1.73659,3.79774 -2.89281,3.69895 -0.77059,-0.0659 -2.00187,-0.17 -1.89456,-2.41207 0.16618,-3.47208 0.41445,-5.29985 -3.706113,-5.43461 -4.120571,-0.13477 -4.637173,2.41792 -4.785112,6.89891 z m 38.352875,0 c -0.22205,6.72581 4.01691,9.60418 8.1276,9.56739 5.4579,-0.0488 7.86956,-4.12899 8.22365,-9.91877 0.22559,-3.68845 -0.31551,-6.45013 -1.56327,-6.45013 -0.79828,0 -1.25838,2.18268 -1.5089,4.05033 -0.38123,2.84236 -1.73659,3.79774 -2.8928,3.69895 -0.77059,-0.0659 -2.00188,-0.17 -1.89457,-2.41207 0.16619,-3.47208 0.41396,-5.29985 -3.70636,-5.43461 -4.12032,-0.13477 -4.63741,2.41792 -4.78535,6.89891 z m -19.48469,1.1732 c 0.0488,5.45789 4.12948,7.86956 9.91925,8.22366 3.68846,0.22557 6.45014,-0.31552 6.45014,-1.56329 0,-0.79828 -2.18316,-1.25838 -4.05081,-1.50889 -2.84238,-0.38124 -3.79775,-1.73659 -3.69896,-2.89281 0.0659,-0.77058 0.16999,-2.00187 2.41206,-1.89456 3.47208,0.16618 5.30035,0.41446 5.59499,-3.59114 0.30633,-4.16458 -2.27907,-4.74229 -8.12043,-4.79979 -5.84136,-0.0575 -8.54188,4.04458 -8.50624,8.02682 z m -32.494236,-7.76987 c 7.213646,-0.0847 8.86672,8.02323 7.680322,12.97014 -0.870011,-2.22362 -5.484407,0.0439 -7.077549,0.14682 -3.205032,0.20692 -7.513203,-2.25727 -7.043598,-6.59975 0.509185,-4.7085 2.804134,-6.47453 6.440825,-6.51721 z m 20.387861,5.35976 c -0.18066,2.72092 1.4348,4.19247 3.669545,4.14 2.34353,-0.055 3.94977,-1.88468 4.6036,-6.31831 0.60718,5.47318 -1.44444,11.36171 -6.868635,11.37424 -4.015732,0.009 -6.50059,-2.98689 -6.361927,-7.97765 0.113807,-4.09613 0.475867,-5.25142 3.122372,-5.19451 2.646505,0.0569 2.014265,1.27709 1.835045,3.97623 z m 38.353365,0 c -0.18066,2.72092 1.4348,4.19247 3.66956,4.14 2.34351,-0.055 3.94977,-1.88468 4.60359,-6.31831 0.60718,5.47318 -1.44443,11.36171 -6.86864,11.37424 -4.01574,0.009 -6.50059,-2.98689 -6.36193,-7.97765 0.1138,-4.09613 0.47587,-5.25142 3.12237,-5.19451 2.64651,0.0569 2.01427,1.27709 1.83505,3.97623 z m -11.38747,-0.94043 c -0.1359,2.79668 -1.3556,2.16444 -4.05474,1.98522 -2.72091,-0.18066 -4.19295,1.4348 -4.14049,3.66956 0.055,2.34352 1.88518,3.94977 6.3188,4.60359 -5.47316,0.60718 -11.36171,-1.44394 -11.37424,-6.86815 -0.009,-3.89025 2.80248,-6.34383 7.57442,-6.29243 4.77195,0.0514 5.79517,0.45507 5.67625,2.90221 z"
     id="path1512"
     inkscape:connector-curvature="0"
     sodipodi:nodetypes="scsscsssccccssscsscsscccccsccccscsccccsssssssssssssssscssscsscssssssscssccssscsssssscsssssssssssssssssssssssssssscssssscsssssscssssssscsss"
     inkscape:label="glaucus-logo" />
</svg>
