<?xml version="1.0" encoding="UTF-8" standalone="no"?>
<svg
   xmlns:dc="http://purl.org/dc/elements/1.1/"
   xmlns:cc="http://creativecommons.org/ns#"
   xmlns:rdf="http://www.w3.org/1999/02/22-rdf-syntax-ns#"
   xmlns:svg="http://www.w3.org/2000/svg"
   xmlns="http://www.w3.org/2000/svg"
   xmlns:sodipodi="http://sodipodi.sourceforge.net/DTD/sodipodi-0.dtd"
   xmlns:inkscape="http://www.inkscape.org/namespaces/inkscape"
   version="1.1"
   id="svg3089"
   width="715.53278"
   height="715.53278"
   viewBox="0 0 715.53279 715.53277"
   sodipodi:docname="Logo-LocOS.svg"
   inkscape:version="1.0 (4035a4fb49, 2020-05-01)">
  <metadata
     id="metadata3095">
    <rdf:RDF>
      <cc:Work
         rdf:about="">
        <dc:format>image/svg+xml</dc:format>
        <dc:type
           rdf:resource="http://purl.org/dc/dcmitype/StillImage" />
        <dc:title></dc:title>
      </cc:Work>
    </rdf:RDF>
  </metadata>
  <defs
     id="defs3093">
    <filter
       inkscape:collect="always"
       style="color-interpolation-filters:sRGB"
       id="filter5303"
       x="-0.013520397"
       width="1.0270408"
       y="-0.029042995"
       height="1.058086">
      <feGaussianBlur
         inkscape:collect="always"
         stdDeviation="1.1057612"
         id="feGaussianBlur5305" />
    </filter>
    <filter
       height="1.0370052"
       y="-0.018502606"
       width="1.0368001"
       x="-0.018400079"
       id="filter6185"
       style="color-interpolation-filters:sRGB"
       inkscape:collect="always">
      <feGaussianBlur
         id="feGaussianBlur6187"
         stdDeviation="2.9068362"
         inkscape:collect="always" />
    </filter>
    <filter
       height="1.0369024"
       y="-0.018451201"
       width="1.0369024"
       x="-0.018451201"
       id="filter6244"
       style="color-interpolation-filters:sRGB"
       inkscape:collect="always">
      <feGaussianBlur
         id="feGaussianBlur6246"
         stdDeviation="5.3052399"
         inkscape:collect="always" />
    </filter>
  </defs>
  <sodipodi:namedview
     inkscape:document-rotation="0"
     pagecolor="#ffffff"
     bordercolor="#666666"
     borderopacity="1"
     objecttolerance="10"
     gridtolerance="10"
     guidetolerance="10"
     inkscape:pageopacity="0"
     inkscape:pageshadow="2"
     inkscape:window-width="1920"
     inkscape:window-height="991"
     id="namedview3091"
     showgrid="false"
     inkscape:zoom="0.34134738"
     inkscape:cx="606.71796"
     inkscape:cy="558.51618"
     inkscape:window-x="-9"
     inkscape:window-y="-9"
     inkscape:window-maximized="1"
     inkscape:current-layer="g3097"
     fit-margin-top="0"
     fit-margin-left="0"
     fit-margin-right="0"
     fit-margin-bottom="0" />
  <g
     inkscape:groupmode="layer"
     inkscape:label="Image"
     id="g3097"
     transform="translate(200.08904,146.17197)">
    <g
       id="g6273">
      <circle
         r="345.03381"
         cy="211.59442"
         cx="157.67735"
         id="circle6238"
         style="opacity:1;fill:#000000;stroke:#ffffff;stroke-width:10.159;stroke-linecap:round;stroke-linejoin:round;stroke-miterlimit:4;stroke-dasharray:none;stroke-opacity:1;paint-order:stroke fill markers;filter:url(#filter6244)" />
      <circle
         style="opacity:1;fill:#000000;stroke:none;stroke-width:8.25166;stroke-linecap:round;stroke-linejoin:round;stroke-miterlimit:4;stroke-dasharray:none;stroke-opacity:1;paint-order:stroke fill markers"
         id="path6236"
         cx="157.67735"
         cy="211.59442"
         r="345.03381" />
      <g
         id="g6234"
         transform="translate(-92.599338,-93.264419)">
        <g
           id="g6208">
          <path
             style="opacity:1;fill:#ffffff;fill-opacity:1;stroke:#ffffff;stroke-width:10.159;stroke-linecap:butt;stroke-linejoin:miter;stroke-miterlimit:4;stroke-dasharray:none;stroke-opacity:1;filter:url(#filter6185)"
             d="m 58.103876,395.06695 c 0,0 -2.55489,-23.52487 2.39805,-46.76197 4.95293,-23.23709 26.52628,-57.61236 32.77337,-84.7311 5.59035,-51.3405 10.391534,-121.50117 10.391534,-121.50117 9.32418,-61.109547 50.1972,-111.246583 99.91873,-119.103125 25.90001,-4.774432 54.16691,-3.005382 81.53368,0 56.28438,9.483866 90.83023,57.969803 103.11615,113.507685 l 8.39314,121.50118 c 0,0 1.32257,17.44074 8.58204,34.43026 8.29128,17.14823 20.45589,33.52779 25.79002,49.50147 5.2712,24.4867 5.59543,55.15514 5.59543,55.15514 z"
             id="path4922-2"
             sodipodi:nodetypes="cccccccccccc" />
          <g
             transform="matrix(2.5397977,0,0,2.5397977,434.81802,-20.195303)"
             id="g5043">
            <g
               id="g5028">
              <g
                 id="g5014">
                <path
                   style="fill:#3b3b3b;fill-opacity:1;stroke:none;stroke-width:1px;stroke-linecap:butt;stroke-linejoin:miter;stroke-opacity:1"
                   d="m -148.32447,163.5021 c 0,0 -1.00594,-9.2625 0.94419,-18.41169 1.95013,-9.14919 10.44425,-22.68384 12.90393,-33.36136 2.2011,-20.214405 4.09148,-47.838914 4.09148,-47.838914 3.67123,-24.060794 19.76425,-43.801357 39.341215,-46.89473 h 32.102433 c 22.16097,3.734103 35.76278,22.824575 40.60014,44.691622 l 3.30465,47.838922 c 0,0 0.520738,6.86698 3.37903,13.5563 3.2645425,6.75181 8.05414,13.20097 10.15436,19.49032 2.07544,9.6412 2.2031,21.71635 2.2031,21.71635 z"
                   id="path4922"
                   sodipodi:nodetypes="cccccccccccc" />
                <g
                   id="g4999">
                  <path
                     style="fill:#414141;fill-opacity:1;stroke:none;stroke-width:1px;stroke-linecap:butt;stroke-linejoin:miter;stroke-opacity:1"
                     d="m -142.54116,163.5021 c 0,0 -1.00594,-9.2625 0.94419,-18.41169 1.95013,-9.14919 8.49971,-20.38574 12.90392,-33.36136 2.20111,-20.214405 4.09148,-47.838914 4.09148,-47.838914 3.67124,-24.060794 13.98095,-43.801357 33.557915,-46.89473 10.845223,-1.904323 21.290603,-1.10455 32.102433,0 22.16097,3.734103 38.18146,33.758099 40.60014,44.691622 2.41868,10.933524 1.025535,28.24811 3.30465,47.838922 2.279115,19.59081 11.45795,23.40542 13.53339,33.04662 2.07544,9.6412 2.2031,21.71635 2.2031,21.71635 z"
                     id="path4924"
                     sodipodi:nodetypes="cccccczzzcc" />
                  <circle
                     style="fill:#e6e1d6;fill-opacity:1;stroke:none;stroke-width:2.49827;stroke-linecap:round;stroke-linejoin:round;paint-order:stroke fill markers"
                     id="circle4930"
                     cx="-44.384975"
                     cy="54.369564"
                     r="12.353142" />
                  <circle
                     r="4.2106681"
                     cy="54.369564"
                     cx="-44.384975"
                     id="circle4932"
                     style="fill:#000000;fill-opacity:1;stroke:none;stroke-width:0.851556;stroke-linecap:round;stroke-linejoin:round;paint-order:stroke fill markers" />
                  <circle
                     r="12.353142"
                     cy="54.369564"
                     cx="-103.3968"
                     id="path4928"
                     style="fill:#e6e1d6;fill-opacity:1;stroke:none;stroke-width:2.49827;stroke-linecap:round;stroke-linejoin:round;paint-order:stroke fill markers" />
                  <circle
                     style="fill:#000000;fill-opacity:1;stroke:none;stroke-width:0.851556;stroke-linecap:round;stroke-linejoin:round;paint-order:stroke fill markers"
                     id="circle4934"
                     cx="-103.3968"
                     cy="54.369564"
                     r="4.2106681" />
                  <g
                     transform="translate(-79.542755,-2.080649)"
                     id="g4989">
                    <path
                       sodipodi:nodetypes="cccczzcccc"
                       id="path4977"
                       d="m 5.580853,56.46189 c 9.15819,0.291599 13.60364,13.581261 20.14055,16.023422 6.06482,1.025877 13.05824,-1.343119 16.82374,0.426004 9.00665,10.344375 -1.81823,13.291133 -11.48257,11.990567 0,0 -6.01745,6.277702 -12.01757,7.781255 -6.00012,1.503553 -20.430931,1.34548 -26.594434,-0.111273 -6.163504,-1.456753 -13.241579,-7.716074 -13.241579,-7.716074 -8.970979,2.872188 -20.11878,-5.609178 -11.79502,-10.367551 3.57127,-1.852593 10.34279,0.724299 17.358709,-1.557833 C -8.211432,70.648275 -4.91127,56.127818 5.580853,56.46189 Z"
                       style="opacity:1;fill:#ffc108;fill-opacity:1;stroke:none;stroke-width:1px;stroke-linecap:butt;stroke-linejoin:miter;stroke-opacity:1" />
                    <path
                       style="opacity:1;fill:#ffa001;fill-opacity:1;stroke:none;stroke-width:1px;stroke-linecap:butt;stroke-linejoin:miter;stroke-opacity:1"
                       d="m 31.062573,84.901885 c 0,0 -6.01745,6.2777 -12.01757,7.781253 -6.00012,1.503553 -20.430931,1.34548 -26.594434,-0.111273 -6.163504,-1.456753 -13.241579,-7.716074 -13.241579,-7.716074 9.79094,-3.243704 35.112903,-3.582687 51.853583,0.04609 z"
                       id="path4979"
                       sodipodi:nodetypes="czzccc" />
                  </g>
                </g>
                <path
                   style="fill:#e6e1d6;fill-opacity:1;stroke:none;stroke-width:1px;stroke-linecap:butt;stroke-linejoin:miter;stroke-opacity:1"
                   d="m -128.29519,163.60757 c 0,0 -1.00594,-18.04732 0.94419,-27.19651 1.95013,-9.14919 8.2976,-29.32054 25.14404,-31.13589 14.203922,-0.82963 16.881023,5.33149 27.217798,5.47137 10.336775,0.13988 15.609295,-6.43794 30.13136,-6.11664 17.05947,4.57107 24.58826,24.07307 26.6637,33.71427 2.07544,9.6412 2.2031,25.86272 2.2031,25.86272 z"
                   id="path4926"
                   sodipodi:nodetypes="ccczczcc" />
              </g>
            </g>
          </g>
          <path
             sodipodi:nodetypes="sscsssssssssscsssscssssssssssssssscssssssssssssssssssssssssssssssscsscsssssscssssssssscscsccsssssssssssssssssssssssssssscssssssssssssssssssssssssssssssscsssssssssssssssssss"
             id="path5179"
             d="m 79.30052,226.74159 c -5.044677,-12.0075 -4.937868,-15.0962 0.484538,-14.01172 l 3.300291,0.66006 -0.731967,-9.06609 c -1.138614,-14.10278 0.755697,-19.11983 5.447607,-14.42793 2.689687,2.68969 4.594302,23.26051 2.925982,31.60211 -0.597407,2.98704 -0.974935,3.2567 -3.775281,2.69663 -3.021426,-0.60428 -3.111496,-0.49534 -3.111496,3.76348 0,2.41218 -0.390462,4.62711 -0.867693,4.92205 -0.477231,0.29495 -2.129622,-2.46742 -3.671981,-6.13859 z m -28.199069,4.9909 c -0.384704,-0.3847 -0.699461,-1.83204 -0.699461,-3.21632 0,-2.23138 -0.506466,-2.51685 -4.465334,-2.51685 h -4.465335 l 0.776706,-16.31736 c 0.427187,-8.97456 1.046608,-17.02073 1.37649,-17.88038 0.723714,-1.88597 5.443749,-3.84002 6.98088,-2.89002 0.722897,0.44677 0.834009,5.48106 0.323534,14.65873 l -0.777491,13.97828 5.788197,-0.35889 c 5.719186,-0.35461 5.784597,-0.32418 5.486318,2.55247 -0.269305,2.59722 0.138076,2.99042 3.775281,3.64394 6.328214,1.13701 7.579189,2.1063 4.704218,3.64493 -2.310135,1.23635 -9.331299,3.42504 -15.298385,4.76894 -1.543387,0.34759 -3.120915,0.31724 -3.505618,-0.0674 z M 189.89422,226.2017 c -2.01153,-2.48096 -2.65584,-2.71373 -4.46804,-1.61414 -1.89627,1.1506 -2.38314,0.78426 -4.65891,-3.50561 -1.39774,-2.63477 -3.02757,-4.76784 -3.62184,-4.74015 -0.59429,0.0277 -2.08049,2.09061 -3.3027,4.58427 -1.67588,3.41928 -2.93701,4.61799 -5.12974,4.87583 -3.78347,0.4449 -4.91866,-2.36647 -2.47948,-6.14054 1.00616,-1.55682 2.85653,-4.85109 4.11192,-7.32064 l 2.28254,-4.49004 -3.59675,-8.71157 c -1.97822,-4.79137 -3.35918,-8.94914 -3.06883,-9.23951 0.29036,-0.29035 1.71143,-0.65973 3.15792,-0.82084 2.14831,-0.23927 3.02513,0.53954 4.78731,4.25226 2.05531,4.33031 4.85393,6.19511 4.85393,3.23431 0,-0.76399 1.35563,-3.01288 3.01249,-4.99755 2.37288,-2.84232 3.51799,-3.44805 5.39326,-2.85286 3.13234,0.99416 3.0441,1.55945 -1.39174,8.91578 -5.77913,9.58401 -4.79855,17.61286 1.94441,15.92049 2.57456,-0.64618 2.76863,-0.34271 4.41778,6.90805 0.94871,4.17116 1.72492,7.85215 1.72492,8.17999 0,1.36275 -1.7674,0.27717 -3.96845,-2.43753 z m -91.017855,-2.48105 c -0.791798,-1.47949 -1.08884,-7.35735 -0.84694,-16.75923 0.393987,-15.31301 0.958664,-16.90878 5.765825,-16.29412 1.80085,0.23027 2.21136,1.2168 2.48444,5.97059 0.31436,5.47234 0.44074,5.68296 3.23596,5.39325 2.56824,-0.26618 2.94839,0.10897 3.24682,3.20414 0.50965,5.28575 2.81973,4.21487 4.85827,-2.25211 2.50725,-7.95393 2.40169,-11.5007 -0.34234,-11.5007 -2.44499,0 -2.76457,-1.11857 -0.86292,-3.02022 1.51873,-1.51873 6.13559,-1.67901 8.33148,-0.28923 2.15723,1.36529 2.31237,33.52089 0.17417,36.09727 -3.17123,3.8211 -8.39844,0.27099 -12.93924,-8.78782 -1.28251,-2.55858 -3.06936,-4.58427 -4.04376,-4.58427 -1.47678,0 -1.65687,0.9815 -1.16845,6.3679 0.35761,3.94379 0.12721,6.81811 -0.60525,7.55056 -1.95706,1.95706 -5.9777,1.35242 -7.288065,-1.09601 z m 44.510265,1.1898 c -2.5963,-0.38506 -5.67878,-1.73147 -7.01124,-3.06246 -2.22053,-2.2181 -2.37789,-3.35492 -2.37789,-17.17939 v -14.80411 h 3.23596 c 3.60628,0 3.53456,-0.41585 2.09279,12.13483 l -0.77444,6.74158 h 2.84644 c 2.60175,0 2.84644,0.3709 2.84644,4.3146 0,6.74271 2.30006,5.20985 6.20225,-4.13345 4.19165,-10.03638 4.24893,-10.72598 0.92733,-11.16569 -2.43981,-0.32298 -2.51222,-0.54406 -1.34831,-4.11659 0.97084,-2.97987 1.79812,-3.77528 3.9266,-3.77528 h 2.69663 v 14.66611 c 0,15.72716 -0.40037,17.07593 -5.85403,19.72102 -1.72326,0.8358 -4.53143,1.08552 -7.40853,0.65883 z M 21.997495,185.37011 c -0.395506,-0.3955 -0.719102,-1.85168 -0.719102,-3.23596 0,-2.20569 -0.519139,-2.51685 -4.199203,-2.51685 -2.834079,0 -4.41205,-0.55467 -4.853933,-1.7062 -1.033976,-2.69449 -0.762037,-15.35858 0.344484,-16.04245 0.549566,-0.33966 0.726154,-3.26323 0.392417,-6.49684 -0.562154,-5.44673 0.994632,-12.40452 2.784175,-12.44339 0.37297,-0.009 1.845042,-0.32697 3.271271,-0.70858 l 2.593143,-0.69387 -0.603454,10.95137 c -0.331899,6.02325 -0.336443,12.94208 -0.01014,15.37517 l 0.593357,4.4238 6.046167,-0.73609 c 4.796493,-0.58396 5.777921,-0.45999 4.748339,0.59978 -2.188144,2.2523 0.350041,5.22919 5.107152,5.98989 2.354311,0.37647 4.280565,1.09224 4.280565,1.5906 0,0.49837 -4.029543,2.13521 -8.954539,3.63743 -9.972793,3.04188 -9.819552,3.01338 -10.820743,2.01219 z m 36.894317,-6.49163 c -1.559811,-0.96804 -4.108126,-3.72194 -5.662921,-6.11979 -2.297443,-3.54318 -2.826901,-5.64572 -2.826901,-11.22596 0,-7.63375 0.88432,-9.95994 5.734287,-15.08397 2.84739,-3.00829 4.053391,-3.50561 8.50098,-3.50561 4.627465,0 5.6304,0.46115 9.359205,4.30343 4.278904,4.40912 5.529125,7.86885 5.529125,15.30069 0,5.42892 -2.010867,9.24031 -7.48384,14.1848 -4.870094,4.39984 -8.550877,5.00064 -13.149935,2.14641 z m 11.059292,-11.48946 c 5.003773,-8.82507 5.446961,-12.5807 1.484595,-12.5807 -2.277153,0 -2.696629,-0.50338 -2.696629,-3.23596 0,-2.97458 -0.302703,-3.23595 -3.747581,-3.23595 -3.103122,0 -4.04614,0.57734 -5.483721,3.35732 -0.954877,1.84652 -2.006036,5.97236 -2.33591,9.16854 -0.557908,5.40561 -0.438664,5.81121 1.70844,5.81121 1.89687,0 2.30821,0.64074 2.30821,3.59551 0,7.694 3.400984,6.5762 8.762596,-2.87997 z m 22.47491,8.17846 c -4.577026,-4.57702 -5.213194,-5.80659 -5.916447,-11.43525 -1.053818,-8.43447 0.599091,-13.52101 5.970755,-18.374 3.105118,-2.80528 5.288999,-3.88877 7.812418,-3.87599 4.78198,0.0243 12.04201,4.27021 12.47705,7.29713 0.42163,2.93362 -2.49071,4.33483 -5.3275,2.56322 -3.00507,-1.87669 -8.590496,-1.52812 -10.235393,0.63876 -0.845566,1.11389 -1.446986,4.80357 -1.467229,9.00136 -0.02677,5.55145 0.3989,7.50576 1.93827,8.89887 2.664292,2.41116 5.780252,2.24568 9.260352,-0.49176 2.77462,-2.18252 2.98192,-2.19795 4.9994,-0.37215 3.14163,2.84313 2.6166,4.26405 -2.9341,7.94068 -7.21785,4.78091 -10.343469,4.44324 -16.577576,-1.79087 z m 57.628126,1.63971 c -5.04011,-4.42527 -6.8881,-8.87187 -6.8881,-16.57399 0,-10.26049 5.71109,-17.62379 13.70206,-17.66606 6.15047,-0.0326 9.43618,1.67178 12.68374,6.57917 2.18243,3.29789 2.7378,5.47625 2.7378,10.73878 0,7.9467 -2.10847,12.85253 -7.39765,17.21232 -5.26966,4.3437 -9.65786,4.25787 -14.83785,-0.29022 z M 162.7428,168.414 c 2.28446,-4.02637 4.15358,-8.73481 4.15358,-10.46318 0,-2.67024 -0.42416,-3.1425 -2.82238,-3.1425 -2.42889,0 -2.75051,-0.37595 -2.30688,-2.69663 0.47882,-2.50474 0.21519,-2.69663 -3.70457,-2.69663 -3.8519,0 -4.36653,0.35053 -5.89882,4.01781 -0.92331,2.2098 -1.74798,6.2143 -1.8326,8.89888 -0.13904,4.41137 0.0797,4.87282 2.27312,4.79541 2.0907,-0.0738 2.42696,0.46175 2.42696,3.86517 0,7.82478 2.23262,7.07831 7.71159,-2.57833 z m 25.04068,11.53684 c -1.49345,-0.29256 -2.51716,-1.51757 -2.91012,-3.48232 -0.47311,-2.36563 -1.3761,-3.18497 -4.11341,-3.73243 -3.20727,-0.64145 -3.36039,-0.84829 -1.79042,-2.41825 1.06793,-1.06793 4.41165,-1.93312 8.84691,-2.28915 l 7.13011,-0.57233 -0.67677,3.38385 c -0.75061,3.75306 -0.642,3.82985 3.29796,2.33188 4.48974,-1.707 3.69648,-5.75536 -1.87947,-9.59172 -6.28619,-4.32501 -6.96317,-5.31992 -7.38976,-10.86021 -0.33939,-4.40777 -0.0796,-4.98145 3.29671,-7.28089 2.57267,-1.7521 5.20619,-2.49612 8.83523,-2.49612 5.63654,0 6.90136,0.99609 5.97112,4.70248 -0.50815,2.02463 -1.19912,2.35356 -4.20646,2.00246 -2.34283,-0.2735 -4.07907,0.15905 -4.9759,1.23965 -1.57456,1.89723 -0.64516,6.07788 1.35118,6.07788 0.72951,0 3.12376,1.84069 5.32056,4.09042 3.26063,3.33918 3.9898,4.87449 3.97021,8.35955 -0.0344,6.11815 -2.62046,8.87239 -9.56144,10.18315 -5.92988,1.11982 -6.4998,1.1389 -10.51624,0.3521 z m -66.49685,-17.9132 c -1.19267,-3.10802 0.91842,-4.11104 7.95516,-3.77962 6.08539,0.28659 6.91302,0.58385 6.91302,2.48288 0,1.90848 -0.82441,2.19374 -7.14775,2.47322 -5.31487,0.2349 -7.2946,-0.0668 -7.72043,-1.17648 z"
             style="fill:#ffffff;fill-opacity:1;stroke:#fffffe;stroke-width:3.99992;stroke-miterlimit:4;stroke-dasharray:none;stroke-opacity:1;filter:url(#filter5303)"
             transform="matrix(2.5397977,0,0,2.5397977,-13.741948,-30.880503)" />
          <path
             style="fill:#000000;fill-opacity:1;stroke:none;stroke-width:2.73955;stroke-opacity:1"
             d="m 187.66533,544.99727 c -12.81246,-30.49663 -12.54119,-38.3413 1.23063,-35.58694 l 8.38207,1.67642 -1.85905,-23.02603 c -2.89185,-35.81821 1.91932,-48.5605 13.83582,-36.64403 6.83126,6.83127 11.6686,59.07699 7.4314,80.26297 -1.51729,7.58648 -2.47613,8.27136 -9.58845,6.84889 -7.67381,-1.53475 -7.90257,-1.25806 -7.90257,9.55848 0,6.12645 -0.99169,11.75192 -2.20376,12.50101 -1.21207,0.74912 -5.40881,-6.26675 -9.32609,-15.59077 z m -71.61993,12.67587 c -0.97707,-0.97706 -1.77649,-4.65301 -1.77649,-8.1688 0,-5.66725 -1.28632,-6.39229 -11.34104,-6.39229 H 91.586818 l 1.972676,-41.44279 c 1.084968,-22.79357 2.658172,-43.22921 3.496006,-45.41255 1.838087,-4.78998 13.82602,-9.75288 17.73002,-7.34007 1.83602,1.13471 2.11822,13.92079 0.82171,37.23021 l -1.97467,35.502 14.70085,-0.9115 c 14.52558,-0.90064 14.69171,-0.82335 13.93414,6.48275 -0.68398,6.59642 0.35069,7.59507 9.58845,9.25487 16.07238,2.88778 19.24961,5.34958 11.94776,9.25739 -5.86727,3.14008 -23.69961,8.69891 -38.8548,12.11214 -3.91989,0.88281 -7.92649,0.80573 -8.90356,-0.17118 z m 352.50556,-14.04709 c -5.10888,-6.30113 -6.7453,-6.89232 -11.34792,-4.09958 -4.81614,2.92229 -6.0527,1.99186 -11.83269,-8.90354 -3.54998,-6.69179 -7.68942,-12.10935 -9.19874,-12.03903 -1.50938,0.0704 -5.28403,5.30973 -8.38819,11.64312 -4.2564,8.68428 -7.45941,11.72876 -13.0285,12.38362 -9.60925,1.12996 -12.49241,-6.01035 -6.29738,-15.59573 2.55544,-3.954 7.25501,-12.32078 10.44344,-18.59294 l 5.79719,-11.40379 -9.13501,-22.12563 c -5.02428,-12.16911 -8.53164,-22.729 -7.79421,-23.46649 0.73745,-0.73743 4.34668,-1.67558 8.02048,-2.08476 5.45627,-0.6077 7.68321,1.37032 12.1588,10.79988 5.22007,10.99811 12.328,15.73432 12.328,8.21449 0,-1.94038 3.44302,-7.65211 7.65111,-12.69277 6.02664,-7.21891 8.93498,-8.75735 13.69779,-7.24568 7.95551,2.52496 7.7314,3.96068 -3.53474,22.64427 -14.67782,24.34145 -12.18734,44.73311 4.93841,40.43483 6.53886,-1.64117 7.03176,-0.87042 11.22027,17.54505 2.40953,10.5939 4.38095,19.94287 4.38095,20.77552 0,3.46111 -4.48884,0.70395 -10.07906,-6.19084 z m -231.16694,-6.30136 c -2.01101,-3.75761 -2.76544,-18.68618 -2.15106,-42.56505 1.00065,-38.89195 2.43481,-42.94489 14.64403,-41.38377 4.57379,0.58484 5.61641,3.09042 6.30997,15.16409 0.79842,13.89863 1.11939,14.43357 8.21869,13.69776 6.52281,-0.67604 7.48831,0.27676 8.24626,8.13787 1.29441,13.42473 7.16155,10.70492 12.33903,-5.7199 6.3679,-20.20138 6.0998,-29.20946 -0.86948,-29.20946 -6.20978,0 -7.02145,-2.84094 -2.19164,-7.67074 3.85727,-3.85727 15.58316,-4.26435 21.16027,-0.73459 5.47893,3.46756 5.87296,85.13628 0.44236,91.67976 -8.05428,9.70482 -21.33034,0.68826 -32.86305,-22.31928 -3.25732,-6.49828 -7.79555,-11.64312 -10.27033,-11.64312 -3.75073,0 -4.20812,2.49281 -2.96763,16.17318 0.90826,10.01643 0.32309,17.31662 -1.53721,19.17689 -4.97054,4.97054 -15.18215,3.43488 -18.51021,-2.78364 z m 113.04707,3.02185 c -6.59408,-0.97797 -14.42296,-4.39758 -17.80714,-7.77803 -5.63969,-5.63352 -6.03936,-8.52082 -6.03936,-43.63217 v -37.59945 h 8.21869 c 9.15922,0 8.97707,-1.05617 5.31526,30.82002 l -1.96692,17.12224 h 7.22938 c 6.60792,0 7.22938,0.94202 7.22938,10.95822 0,17.12512 5.84169,13.23196 15.75246,-10.49813 10.64595,-25.49038 10.79143,-27.24182 2.35523,-28.35859 -6.19662,-0.82031 -6.38053,-1.38181 -3.42443,-10.45531 2.46574,-7.56827 4.56686,-9.58845 9.97277,-9.58845 h 6.84889 v 37.24895 c 0,39.94381 -1.01685,43.36941 -14.86805,50.08741 -4.37673,2.12276 -11.50891,2.757 -18.81616,1.67329 z M 42.127239,439.92208 c -1.004505,-1.00449 -1.826373,-4.7029 -1.826373,-8.21869 0,-5.602 -1.318508,-6.39229 -10.665127,-6.39229 -7.197987,0 -11.205714,-1.40875 -12.328007,-4.3334 -2.62609,-6.84346 -1.93542,-39.00769 0.874919,-40.74458 1.395787,-0.86267 1.844285,-8.28794 0.99666,-16.50066 -1.427757,-13.83359 2.526164,-31.50497 7.071241,-31.60369 0.947269,-0.0229 4.686034,-0.83044 8.308367,-1.79965 l 6.586059,-1.76229 -1.532652,27.81426 c -0.842956,15.29784 -0.854497,32.87027 -0.02575,39.04983 l 1.507007,11.23555 15.356041,-1.86952 c 12.182122,-1.48314 14.67475,-1.16828 12.05982,1.52332 -5.557443,5.72039 0.889033,13.28109 12.971133,15.21311 5.979474,0.95616 10.871769,2.77407 10.871769,4.0398 0,1.26576 -10.234224,5.42301 -22.742717,9.23834 -25.328877,7.72576 -24.939676,7.65338 -27.482499,5.11056 z m 93.704101,-16.48743 c -3.9616,-2.45863 -10.43381,-9.45298 -14.38267,-15.54303 -5.83504,-8.99896 -7.17976,-14.33899 -7.17976,-28.51167 0,-19.38818 2.24599,-25.29623 14.56393,-38.31023 7.23179,-7.64045 10.29479,-8.90354 21.59077,-8.90354 11.75282,0 14.30008,1.17123 23.77049,10.92984 10.86755,11.19828 14.04285,19.98529 14.04285,38.86066 0,13.78836 -5.10719,23.46852 -19.00743,36.02652 -12.36906,11.17471 -21.7175,12.70062 -33.39818,5.45145 z m 28.08837,-29.1809 c 12.70857,-22.4139 13.83417,-31.95244 3.77057,-31.95244 -5.78351,0 -6.8489,-1.27848 -6.8489,-8.21868 0,-7.55483 -0.7688,-8.21866 -9.51809,-8.21866 -7.88131,0 -10.27638,1.46633 -13.92755,8.52691 -2.42519,4.68979 -5.09492,15.16859 -5.93273,23.28624 -1.41698,13.72916 -1.11412,14.7593 4.33909,14.7593 4.81766,0 5.86238,1.62735 5.86238,9.13187 0,19.5412 8.63782,16.70221 22.25523,-7.31454 z m 57.08172,20.77163 c -11.62472,-11.62471 -13.24046,-14.74757 -15.02658,-29.04322 -2.67648,-21.42185 1.52157,-34.34063 15.16451,-46.66625 7.88637,-7.12484 13.43299,-9.87668 19.84196,-9.84423 12.14526,0.0617 30.58427,10.84547 31.68919,18.53324 1.07085,7.4508 -6.3259,11.00959 -13.53078,6.51006 -7.63227,-4.76641 -21.81812,-3.88112 -25.99582,1.62232 -2.14757,2.82905 -3.67506,12.2001 -3.72647,22.86163 -0.068,14.09956 1.01313,19.06311 4.92281,22.60133 6.76677,6.12386 14.68068,5.70358 23.51942,-1.24897 7.04698,-5.54316 7.57348,-5.58235 12.69747,-0.94518 7.9791,7.22097 6.64563,10.82982 -7.45202,20.16772 -18.33188,12.14254 -26.27032,11.28493 -42.10369,-4.54845 z m 146.36378,4.16453 c -12.80086,-11.23929 -17.49438,-22.53275 -17.49438,-42.09458 0,-26.05957 14.50501,-44.76086 34.80046,-44.86822 15.62095,-0.0828 23.96599,4.24598 32.21414,16.70976 5.54293,8.37597 6.95345,13.90857 6.95345,27.27433 0,20.18301 -5.35508,32.64283 -18.78853,43.71581 -13.38387,11.03212 -24.52901,10.81413 -37.68514,-0.7371 z m 32.22663,-22.33292 c 5.80207,-10.22617 10.54925,-22.18465 10.54925,-26.57436 0,-6.78187 -1.07728,-7.98132 -7.16827,-7.98132 -6.16889,0 -6.98574,-0.95483 -5.85901,-6.84889 1.21611,-6.36154 0.54654,-6.8489 -9.40886,-6.8489 -9.78304,0 -11.0901,0.89028 -14.98181,10.20443 -2.34502,5.61244 -4.43951,15.78306 -4.65443,22.60135 -0.35313,11.20399 0.20242,12.37598 5.77327,12.17937 5.30995,-0.18743 6.16398,1.17276 6.16398,9.81675 0,19.87336 5.67041,17.97748 19.58588,-6.54843 z m 63.59826,29.30124 c -3.79306,-0.74305 -6.39307,-3.85432 -7.39111,-8.84439 -1.20161,-6.00822 -3.49502,-8.08918 -10.44723,-9.47962 -8.14582,-1.62915 -8.53471,-2.15448 -4.54731,-6.14186 2.71233,-2.71233 11.2047,-4.90974 22.46936,-5.81398 l 18.10904,-1.45361 -1.71886,8.5943 c -1.9064,9.53201 -1.63055,9.72704 8.37615,5.9225 11.40303,-4.33543 9.38832,-14.61745 -4.77347,-24.36103 -15.96565,-10.98465 -17.68504,-13.51152 -18.7685,-27.58273 -0.86198,-11.19485 -0.20216,-12.65188 8.37298,-18.49199 6.53406,-4.44998 13.22267,-6.33964 22.4397,-6.33964 14.31567,0 17.52806,2.52987 15.16543,11.94335 -1.29059,5.14215 -3.04552,5.97756 -10.68355,5.08584 -5.95032,-0.69463 -10.36002,0.40396 -12.63778,3.14846 -3.99907,4.81858 -1.63858,15.43659 3.43172,15.43659 1.85281,0 7.93372,4.67498 13.51315,10.38884 8.28134,8.48084 10.13328,12.38022 10.08353,21.23156 -0.0874,15.53887 -6.65544,22.53408 -24.28413,25.86314 -15.06069,2.84412 -16.50817,2.89258 -26.70912,0.89427 z M 294.30156,380.66232 c -3.02914,-7.89374 2.3326,-10.44121 20.20449,-9.59947 15.45566,0.72788 17.55768,1.48286 17.55768,6.30602 0,4.84715 -2.09384,5.57165 -18.15384,6.28147 -13.4987,0.5966 -18.52681,-0.16965 -19.60833,-2.98802 z"
             id="path4752"
             sodipodi:nodetypes="sscsssssssssscsssscssssssssssssssscssssssssssssssssssssssssssssssscsscsssssscssssssssscscsccsssssssssssssssssssssssssssscssssssssssssssssssssssssssssssscsssssssssssssssssss" />
          <path
             sodipodi:nodetypes="sssssssss"
             id="path5323"
             d="m 163.91971,394.25375 c 12.70857,-22.4139 13.83416,-31.95244 3.77057,-31.95244 -5.78351,0 -6.8489,-1.27848 -6.8489,-8.21868 0,-7.55483 -0.7688,-8.21866 -9.51809,-8.21866 -7.88131,0 -10.27638,1.46633 -13.92755,8.52691 -2.42519,4.68979 -5.09492,15.16859 -5.93273,23.28624 -1.41698,13.72916 -1.11412,14.7593 4.33909,14.7593 4.81766,0 5.86238,1.62735 5.86238,9.13187 0,19.5412 8.63782,16.70221 22.25523,-7.31454 z"
             style="fill:#ffffff;fill-opacity:1;stroke:none;stroke-width:2.73955;stroke-opacity:1" />
          <path
             style="fill:#ffffff;fill-opacity:1;stroke:none;stroke-width:2.73955;stroke-opacity:1"
             d="m 399.59184,396.85699 c 12.70856,-22.4139 13.83415,-31.95244 3.77056,-31.95244 -5.7835,0 -6.84887,-1.27848 -6.84887,-8.21868 0,-7.55483 -0.76882,-8.21866 -9.51812,-8.21866 -7.8813,0 -10.27638,1.46633 -13.92754,8.52692 -2.42518,4.68978 -5.09491,15.16858 -5.93274,23.28623 -1.41695,13.72916 -1.11411,14.7593 4.33909,14.7593 4.81767,0 5.86239,1.62735 5.86239,9.13187 0,19.5412 8.63783,16.70222 22.25523,-7.31454 z"
             id="path5333"
             sodipodi:nodetypes="sssssssss" />
        </g>
      </g>
    </g>
  </g>
</svg>
