<?xml version="1.0" encoding="utf-8"?>
<!-- Generator: Adobe Illustrator 16.0.0, SVG Export Plug-In . SVG Version: 6.00 Build 0)  -->
<!DOCTYPE svg PUBLIC "-//W3C//DTD SVG 1.1//EN" "http://www.w3.org/Graphics/SVG/1.1/DTD/svg11.dtd">
<svg version="1.1"
	 id="svg1657" xmlns:cc="http://creativecommons.org/ns#" xmlns:dc="http://purl.org/dc/elements/1.1/" xmlns:rdf="http://www.w3.org/1999/02/22-rdf-syntax-ns#" xmlns:svg="http://www.w3.org/2000/svg" xmlns:inkscape="http://www.inkscape.org/namespaces/inkscape" xmlns:sodipodi="http://sodipodi.sourceforge.net/DTD/sodipodi-0.dtd" inkscape:version="1.0.2 (e86c870879, 2021-01-15)" sodipodi:docname="logo.svg"
	 xmlns="http://www.w3.org/2000/svg" xmlns:xlink="http://www.w3.org/1999/xlink" x="0px" y="0px" width="500px" height="500px"
	 viewBox="50.322 115.108 500 500" enable-background="new 50.322 115.108 500 500" xml:space="preserve">
<circle fill="#FFFFFF" cx="300.228" cy="365.134" r="236.577"/>
<g>
	<path fill="none" d="M243.791,242.274c-7.614-1.083-16.534-0.914-26.239,0.488c38.079,17.255,54.856,31.941,66.866,59.625
		c-7.443-1.891-17.223-2.527-27.693-1.179c23.297,19.421,38.843,42.655,43.484,63.903c0.005,0.007,0.013,0.015,0.019,0.022
		c0.001-0.006,0.003-0.013,0.007-0.02c-0.009-0.002-0.017-0.004-0.025-0.007c0.009-0.001,0.02-0.003,0.029-0.005
		c10.441-25.845,8.028-64.267-8.849-101.957c7.583,2.336,16.258,7.146,24.762,14.166c5.798-27.269-3.228-64.721-26.418-98.903
		c8.719,3.132,17.861,7.465,27.087,12.966c0.641-17.828-5.473-38.708-17.479-59.208c-44.581,0.218-88.737,13.171-126.666,37.979
		C209.256,188.271,235.343,215.975,243.791,242.274z"/>
	<path fill="none" d="M222.075,475.409c2.878,7.127,7.486,14.759,13.55,22.479c-4.099-41.604,0.233-63.488,18.2-87.731
		c2.082,7.391,6.425,16.194,12.828,24.571c5.157-29.86,17.495-54.917,33.567-69.574c-0.004-0.015-0.008-0.028-0.011-0.042
		c-17.15-21.971-51.65-39.13-92.745-43.356c5.819-5.394,14.314-10.492,24.646-14.345c-20.696-18.668-57.649-29.563-98.86-26.589
		c7.082-5.969,15.407-11.723,24.773-16.969c-15.107-9.451-36.217-14.595-59.94-14.461c-23.026,40.109-32.881,84.847-30.42,128.669
		c33.974-22.582,70.964-31.308,97.949-25.495c-4.746,6.075-9.047,13.89-12.7,22.99c33.991-24.359,55.101-31.548,85.088-28.107
		c-5.373,5.5-10.811,13.666-14.877,23.404c28.459-10.48,56.354-12.318,77.081-5.713c-27.608,3.855-59.708,25.166-83.908,58.638
		c-1.773-7.731-1.943-17.638-0.117-28.522c-26.515,8.601-54.421,35.147-72.452,72.324c-1.635-9.11-2.453-19.189-2.305-29.935
		c-15.749,8.363-30.768,24.091-42.518,44.725c15.712,27.017,37.133,51.304,63.994,70.911c10.381,7.577,21.178,14.17,32.279,19.796
		C192.587,532.32,203.527,495.884,222.075,475.409z"/>
	<path fill="none" d="M434.813,377.669c4.734-6.063,9.046-13.868,12.688-22.969c-33.979,24.349-55.09,31.527-85.077,28.097
		c5.372-5.501,10.809-13.656,14.876-23.403c-28.44,10.463-56.32,12.313-77.053,5.724c-0.007,0.005-0.013,0.012-0.019,0.018
		c0,0.001,0.002,0.002,0.004,0.004c0.006-0.005,0.013-0.012,0.019-0.018c-0.004,0.009-0.007,0.019-0.009,0.028
		c17.169,21.962,51.639,39.083,92.72,43.317c-5.817,5.395-14.324,10.502-24.655,14.357c20.707,18.647,57.658,29.552,98.859,26.58
		c-7.071,5.967-15.396,11.723-24.773,16.968c15.127,9.469,36.277,14.614,60.042,14.461c23.028-40.118,32.88-84.869,30.406-128.7
		C498.835,374.754,461.808,383.497,434.813,377.669z"/>
	<path fill="none" d="M378.4,254.852c-2.889-7.125-7.486-14.771-13.539-22.469c4.087,41.604-0.256,63.479-18.212,87.71
		c-2.082-7.391-6.425-16.172-12.827-24.571c-5.155,29.864-17.499,54.914-33.553,69.574c27.605-3.888,59.664-25.18,83.858-58.626
		c1.763,7.731,1.933,17.638,0.107,28.522c26.514-8.601,54.43-35.159,72.462-72.335c1.624,9.111,2.442,19.208,2.304,29.945
		c15.765-8.373,30.802-24.124,42.559-44.791c-15.711-26.993-37.118-51.256-63.956-70.85c-10.391-7.582-21.195-14.176-32.306-19.804
		C407.894,197.921,396.952,234.373,378.4,254.852z"/>
	<path fill="none" d="M356.636,487.959c7.613,1.062,16.534,0.903,26.239-0.498c-38.079-17.257-54.856-31.942-66.865-59.624
		c7.433,1.889,17.222,2.527,27.693,1.178c-23.28-19.388-38.805-42.6-43.476-63.828c-10.431,25.835-8.022,64.251,8.857,101.917
		c-7.592-2.324-16.257-7.146-24.762-14.154c-5.809,27.271,3.228,64.712,26.409,98.914c-8.707-3.142-17.85-7.474-27.078-12.976
		c-0.639,17.82,5.47,38.696,17.465,59.188c44.588-0.204,88.757-13.155,126.695-37.966C391.2,541.974,365.09,514.262,356.636,487.959
		z"/>
	<path fill="#DA2A2F" d="M300.234,365.114c-0.004,0.006-0.006,0.013-0.007,0.02c0,0,0.001,0.001,0.001,0.002
		c0.006-0.006,0.012-0.012,0.019-0.018C300.242,365.116,300.238,365.115,300.234,365.114z"/>
	<path fill="#DA2A2F" d="M289.733,178.408c23.191,34.182,32.216,71.634,26.418,98.903c-8.504-7.019-17.18-11.829-24.762-14.166
		c16.877,37.69,19.291,76.111,8.849,101.957c0.011-0.001,0.021-0.004,0.031-0.005c16.054-14.66,28.397-39.71,33.553-69.574
		c6.402,8.399,10.745,17.181,12.827,24.571c17.956-24.231,22.299-46.106,18.212-87.71c6.053,7.699,10.65,15.344,13.539,22.469
		c18.552-20.479,29.493-56.931,26.897-97.694c-33.21-16.825-69.146-25.008-104.855-25.008c-0.366,0-0.733,0.015-1.101,0.016
		c12.006,20.5,18.119,41.38,17.479,59.208C307.594,185.873,298.452,181.54,289.733,178.408z"/>
	<path fill="#DA2A2F" d="M158.023,263.852c-9.366,5.246-17.691,11-24.773,16.969c41.211-2.974,78.164,7.921,98.86,26.589
		c-10.332,3.854-18.827,8.951-24.646,14.345c41.094,4.227,75.595,21.386,92.745,43.356c-4.642-21.248-20.187-44.482-43.484-63.903
		c10.47-1.349,20.25-0.712,27.693,1.179c-12.01-27.684-28.787-42.369-66.866-59.625c9.705-1.402,18.625-1.571,26.239-0.488
		c-8.448-26.3-34.535-54.003-71.115-72.13c-22.885,14.969-43.503,34.247-60.579,57.639c-5.125,7.021-9.784,14.239-14.014,21.608
		C121.806,249.257,142.917,254.401,158.023,263.852z"/>
	<path fill="#DA2A2F" d="M141.421,437.643c-0.148,10.745,0.669,20.824,2.305,29.935c18.031-37.177,45.937-63.723,72.452-72.324
		c-1.826,10.884-1.656,20.792,0.117,28.522c24.2-33.472,56.3-54.783,83.908-58.638c-20.727-6.604-48.622-4.767-77.081,5.713
		c4.067-9.738,9.504-17.904,14.877-23.404c-29.988-3.441-51.097,3.748-85.088,28.107c3.653-9.1,7.954-16.915,12.7-22.99
		c-26.984-5.813-63.975,2.914-97.949,25.495c2.049,36.478,12.635,72.311,31.241,104.307
		C110.654,461.734,125.672,446.006,141.421,437.643z"/>
	<path fill="#DA2A2F" d="M310.731,551.864c-23.181-34.202-32.217-71.644-26.409-98.914c8.505,7.009,17.17,11.83,24.762,14.154
		c-16.88-37.666-19.289-76.082-8.857-101.917c-0.002-0.011-0.006-0.022-0.008-0.033c-16.072,14.657-28.41,39.714-33.567,69.574
		c-6.403-8.377-10.746-17.181-12.828-24.571c-17.967,24.243-22.299,46.128-18.2,87.731c-6.063-7.721-10.672-15.353-13.55-22.479
		c-18.548,20.476-29.488,56.911-26.899,97.666c33.217,16.835,69.161,25.017,104.872,25.017c0.358,0,0.714-0.015,1.071-0.015
		c-11.996-20.492-18.104-41.368-17.465-59.188C292.881,544.39,302.024,548.722,310.731,551.864z"/>
	<path fill="#DA2A2F" d="M300.232,365.14c0.002,0.004,0.006,0.006,0.01,0.01c0.002-0.009,0.005-0.019,0.009-0.028
		C300.245,365.128,300.238,365.135,300.232,365.14z"/>
	<path fill="#DA2A2F" d="M442.393,466.373c9.377-5.245,17.702-11.001,24.773-16.968c-41.201,2.972-78.152-7.933-98.859-26.58
		c10.331-3.854,18.838-8.962,24.655-14.357c-41.081-4.234-75.551-21.355-92.72-43.317c-0.004-0.004-0.008-0.006-0.01-0.01
		c-0.002-0.002-0.004-0.003-0.004-0.004c0-0.001-0.001-0.002-0.001-0.002c-0.006-0.007-0.014-0.015-0.019-0.022
		c0.003,0.014,0.007,0.027,0.011,0.042c0.002,0.011,0.006,0.022,0.008,0.033c4.671,21.229,20.195,44.44,43.476,63.828
		c-10.472,1.35-20.261,0.711-27.693-1.178c12.009,27.682,28.786,42.367,66.865,59.624c-9.705,1.401-18.626,1.56-26.239,0.498
		c8.454,26.303,34.564,54.015,71.179,72.151c22.891-14.969,43.513-34.249,60.59-57.644c5.132-7.029,9.796-14.256,14.03-21.634
		C478.67,480.987,457.52,475.841,442.393,466.373z"/>
	<path fill="#DA2A2F" d="M459.001,292.602c0.139-10.736-0.68-20.834-2.304-29.945c-18.032,37.176-45.948,63.734-72.462,72.335
		c1.825-10.884,1.655-20.792-0.107-28.522c-24.194,33.446-56.253,54.738-83.858,58.626c-0.011,0.001-0.021,0.004-0.031,0.005
		c-0.01,0.002-0.021,0.004-0.029,0.005c0.009,0.003,0.017,0.005,0.025,0.007c0.004,0.001,0.008,0.002,0.013,0.004
		c20.732,6.589,48.612,4.739,77.053-5.724c-4.067,9.748-9.504,17.902-14.876,23.403c29.987,3.43,51.098-3.749,85.077-28.097
		c-3.643,9.101-7.954,16.905-12.688,22.969c26.995,5.828,64.022-2.915,98.028-25.536c-2.06-36.485-12.66-72.324-31.281-104.322
		C489.803,268.478,474.766,284.229,459.001,292.602z"/>
</g>
<path fill="#DA2A2F" d="M446.206,165.172c-42.671-31.152-93.075-47.627-145.744-47.627h-0.021
	c-78.874,0.011-153.701,38-200.144,101.625c-80.48,110.248-56.26,265.431,53.988,345.911c42.692,31.15,93.087,47.614,145.763,47.614
	c78.887,0,153.703-37.99,200.157-101.614c38.98-53.408,54.843-118.798,44.635-184.136
	C534.654,261.608,499.624,204.154,446.206,165.172z M427.196,559.166c-37.755,24.69-81.709,37.579-126.081,37.782
	c-0.355,0-0.709,0.014-1.066,0.014c-35.537,0-71.307-8.142-104.363-24.895c-11.047-5.599-21.792-12.16-32.123-19.7
	c-26.73-19.513-48.047-43.682-63.683-70.567c-18.516-31.841-29.05-67.5-31.089-103.802c-2.449-43.61,7.358-88.131,30.273-128.045
	c4.209-7.333,8.846-14.516,13.946-21.503c16.992-23.279,37.511-42.463,60.285-57.359c37.745-24.687,81.688-37.578,126.052-37.794
	c0.365-0.001,0.73-0.016,1.095-0.016c35.537,0,71.299,8.143,104.348,24.887c11.057,5.601,21.809,12.163,32.149,19.708
	c26.707,19.5,48.011,43.645,63.646,70.507c18.531,31.843,29.08,67.507,31.13,103.816c2.461,43.619-7.343,88.153-30.259,128.077
	c-4.214,7.342-8.855,14.533-13.963,21.528C470.498,525.083,449.976,544.269,427.196,559.166z"/>
</svg>
